<?xml version="1.0" encoding="UTF-8" standalone="no"?>
<svg width="24px" height="24px" viewBox="0 0 24 24" version="1.1" xmlns="http://www.w3.org/2000/svg" xmlns:xlink="http://www.w3.org/1999/xlink">
    <!-- Generator: Sketch 41.2 (35397) - http://www.bohemiancoding.com/sketch -->
    <title>Icon_Audit</title>
    <desc>Created with Sketch.</desc>
    <defs></defs>
    <g id="Symbols" stroke="none" stroke-width="1" fill="none" fill-rule="evenodd">
        <g id="Audit-Logging---Disabled" transform="translate(-30.000000, -18.000000)" fill="#333333">
            <g id="Icon_Audit" transform="translate(30.000000, 18.000000)">
                <path d="M16.3536,8.2474 C15.5276,6.1374 14.6406,3.3434 13.9676,0.7504 C13.8476,0.2864 13.4176,-0.0356 12.9406,0.0034 C12.4636,0.0314 12.0736,0.3924 12.0086,0.8664 L9.7636,17.3294 L6.9766,4.7844 C6.8796,4.3524 6.5116,4.0344 6.0706,4.0034 C5.6166,3.9714 5.2186,4.2364 5.0636,4.6504 L2.3066,12.0014 L-0.000399999997,12.0014 L-0.000399999997,14.0014 L2.9996,14.0014 C3.4166,14.0014 3.7896,13.7424 3.9366,13.3524 L5.7536,8.5044 L9.0236,23.2184 C9.1256,23.6774 9.5336,24.0014 9.9996,24.0014 C10.0136,24.0014 10.0276,24.0004 10.0416,24.0004 C10.5256,23.9804 10.9256,23.6164 10.9916,23.1364 L13.3476,5.8514 C13.8606,7.4564 14.3656,8.8114 14.8626,9.9174 C15.2516,9.2714 15.7576,8.7054 16.3536,8.2474 Z M20,9.0012 C17.794,9.0012 16,10.7952 16,13.0012 C16,15.2072 17.794,17.0012 20,17.0012 C22.206,17.0012 24,15.2072 24,13.0012 C24,10.7952 22.206,9.0012 20,9.0012 Z M20,11.0012 C21.105,11.0012 22,11.8962 22,13.0012 C22,14.1062 21.105,15.0012 20,15.0012 C18.895,15.0012 18,14.1062 18,13.0012 C18,11.8962 18.895,11.0012 20,11.0012 Z" id="icon-auditlogging"></path>
            </g>
        </g>
    </g>
</svg>