<?xml version="1.0" encoding="UTF-8" standalone="no"?>
<svg width="26px" height="26px" viewBox="0 0 26 26" version="1.1" xmlns="http://www.w3.org/2000/svg" xmlns:xlink="http://www.w3.org/1999/xlink">
    <!-- Generator: Sketch 41.2 (35397) - http://www.bohemiancoding.com/sketch -->
    <title>icon-auditlogging</title>
    <desc>Created with Sketch.</desc>
    <defs></defs>
    <g id="Symbols" stroke="none" stroke-width="1" fill="none" fill-rule="evenodd">
        <g id="Reporting---Pro" transform="translate(-332.000000, -204.000000)" fill="#666666">
            <path d="M349.716538,212.934017 C348.82172,210.648297 347.860819,207.621615 347.131748,204.812671 C347.00175,204.31003 346.535924,203.961214 346.019183,204.003461 C345.502442,204.033793 345.079949,204.424857 345.009533,204.938332 L342.57749,222.77236 L339.558291,209.18262 C339.453209,208.714643 339.054549,208.370161 338.576807,208.336579 C338.084982,208.301914 337.653822,208.588983 337.485909,209.037461 L334.499208,217.000647 L332,217.000647 L332,219.167206 L335.249946,219.167206 C335.701688,219.167206 336.105765,218.886637 336.265012,218.464158 L338.233396,213.212419 L341.775837,229.151792 C341.886335,229.649017 342.328328,230 342.833153,230 C342.848319,230 342.863486,229.998917 342.878652,229.998917 C343.402977,229.977251 343.836303,229.582937 343.907802,229.062963 L346.460092,210.338479 C347.015833,212.077143 347.562907,213.544986 348.101315,214.743093 C348.522725,214.043295 349.070882,213.430159 349.716538,212.934017 Z M353.666739,213.750593 C351.276945,213.750593 349.333478,215.693996 349.333478,218.08371 C349.333478,220.473424 351.276945,222.416828 353.666739,222.416828 C356.056532,222.416828 358,220.473424 358,218.08371 C358,215.693996 356.056532,213.750593 353.666739,213.750593 Z M353.666739,215.917151 C354.863802,215.917151 355.833369,216.886686 355.833369,218.08371 C355.833369,219.280734 354.863802,220.250269 353.666739,220.250269 C352.469676,220.250269 351.500108,219.280734 351.500108,218.08371 C351.500108,216.886686 352.469676,215.917151 353.666739,215.917151 Z" id="icon-auditlogging"></path>
        </g>
    </g>
</svg>