<?xml version="1.0" encoding="UTF-8" standalone="no"?>
<svg width="24px" height="24px" viewBox="0 0 24 24" version="1.1" xmlns="http://www.w3.org/2000/svg" xmlns:xlink="http://www.w3.org/1999/xlink">
    <!-- Generator: Sketch 41.2 (35397) - http://www.bohemiancoding.com/sketch -->
    <title>Icon_Blacklist</title>
    <desc>Created with Sketch.</desc>
    <defs></defs>
    <g id="Symbols" stroke="none" stroke-width="1" fill="none" fill-rule="evenodd">
        <g id="Blacklist-Monitor---Disabled" transform="translate(-30.000000, -18.000000)" fill="#000000">
            <g id="Icon_Blacklist" transform="translate(30.000000, 18.000000)">
                <path d="M3.912,11.137 C4.318,7.369 7.351,4.38 11.137,4.037 L11.137,5.137 C11.137,5.614 11.523,6 12,6 C12.477,6 12.863,5.614 12.863,5.137 L12.863,4.07 C16.521,4.529 19.418,7.461 19.815,11.137 L18.863,11.137 C18.387,11.137 18,11.524 18,12 C18,12.477 18.387,12.864 18.863,12.864 L19.815,12.864 C19.418,16.54 16.521,19.472 12.863,19.931 L12.863,18.864 C12.863,18.387 12.477,18 12,18 C11.523,18 11.137,18.387 11.137,18.864 L11.137,19.964 C7.351,19.621 4.318,16.632 3.912,12.864 L5.137,12.864 C5.614,12.864 6,12.477 6,12 C6,11.524 5.614,11.137 5.137,11.137 L3.912,11.137 Z M12,0 C11.523,0 11.137,0.387 11.137,0.864 L11.137,2.037 C6.241,2.39 2.325,6.259 1.907,11.137 L0.863,11.137 C0.387,11.137 0,11.524 0,12 C0,12.477 0.387,12.864 0.863,12.864 L1.907,12.864 C2.325,17.741 6.241,21.611 11.137,21.964 L11.137,23.137 C11.137,23.614 11.523,24 12,24 C12.477,24 12.863,23.614 12.863,23.137 L12.863,21.95 C17.633,21.476 21.41,17.651 21.82,12.864 L23.137,12.864 C23.614,12.864 24,12.477 24,12 C24,11.524 23.614,11.137 23.137,11.137 L21.82,11.137 C21.41,6.35 17.633,2.525 12.863,2.051 L12.863,0.864 C12.863,0.387 12.477,0 12,0 L12,0 Z M22.042,10.864 L22.047,10.864 L22.042,10.864 Z M11.8635,8.0004 C9.6545,8.0004 7.8635,9.7914 7.8635,12.0004 C7.8635,14.2094 9.6545,16.0004 11.8635,16.0004 C14.0725,16.0004 15.8635,14.2094 15.8635,12.0004 C15.8635,9.7914 14.0725,8.0004 11.8635,8.0004 Z M11.8635,10.0004 C12.9665,10.0004 13.8635,10.8974 13.8635,12.0004 C13.8635,13.1034 12.9665,14.0004 11.8635,14.0004 C10.7605,14.0004 9.8635,13.1034 9.8635,12.0004 C9.8635,10.8974 10.7605,10.0004 11.8635,10.0004 Z" id="icon-blacklist"></path>
            </g>
        </g>
    </g>
</svg>