<?xml version="1.0" encoding="UTF-8" standalone="no"?>
<svg width="118px" height="167px" viewBox="0 0 118 167" version="1.1" xmlns="http://www.w3.org/2000/svg" xmlns:xlink="http://www.w3.org/1999/xlink">
    <!-- Generator: Sketch 41.2 (35397) - http://www.bohemiancoding.com/sketch -->
    <title>Graphic</title>
    <desc>Created with Sketch.</desc>
    <defs>
        <rect id="path-1" x="0" y="0" width="118" height="167"></rect>
    </defs>
    <g id="Security-Plugin" stroke="none" stroke-width="1" fill="none" fill-rule="evenodd">
        <g id="File-Scanning---Scanning---Free" transform="translate(-410.000000, -567.000000)">
            <g id="Modal" transform="translate(380.000000, 256.000000)">
                <g id="Graphic" transform="translate(30.000000, 311.000000)">
                    <mask id="mask-2" fill="white">
                        <use xlink:href="#path-1"></use>
                    </mask>
                    <g id="Mask"></g>
                    <g id="Defender" mask="url(#mask-2)">
                        <g transform="translate(59.000000, 114.500000) scale(-1, 1) translate(-59.000000, -114.500000) ">
                            <path d="M29.9022766,86.8647793 C29.9022766,86.8647793 36.4146708,93.3895575 37.0692693,96.3596703 C16.141065,104.124148 3.05641533,122.636129 0.188670803,151.057095 C-1.65195693,166.465954 10.6079847,167.127558 9.96458321,168.85668 C9.32161241,170.585802 8.53092628,188.311349 13.0399044,202.693152 C17.5488825,217.074954 18.5665248,228.979511 18.5665248,228.979511 L109.195693,228.979511 L114.550912,153.344082 C114.550912,153.344082 124.359985,129.824232 108.897678,107.981851 C97.2277365,91.4972944 91.2075832,90.4779861 91.2075832,90.4779861 L90.8423861,83.9639692 L29.9022766,86.8647793 Z" id="Fill-1" fill="#A05621"></path>
                            <path d="M33.5975285,175.047987 C33.3132949,163.063367 35.6603752,162.549408 34.1440321,156.471439 C32.6281197,150.393469 28.1742657,143.202783 29.2022438,133.272705 C30.2297912,123.342198 35.0260175,113.412121 35.0260175,113.412121 C35.0260175,113.412121 30.0687255,116.591433 27.4085577,119.282183 C24.7483898,121.972502 23.5395358,138.065348 21.0606745,141.832657 C19.0852511,144.834623 6.8912,157.1791 2.01659416,162.072469 C5.05057226,167.013617 10.3950248,167.699326 9.96479854,168.856378 C9.8502438,169.164151 9.73181314,169.985452 9.63879124,171.196311 C9.65429489,171.210946 16.4483387,177.444739 20.0822219,177.444739 C23.7208423,177.444739 22.6928642,187.375247 22.6928642,196.278267 C22.6928642,205.180858 23.7066307,207.920249 25.5980759,209.974792 C27.4890905,212.029335 33.5975285,228.979209 33.5975285,228.979209 L40.1650467,213.399031 C40.1650467,213.399031 33.881762,195.250781 33.5975285,175.047987" id="Fill-4" fill="#98480B"></path>
                            <path d="M41.345908,86.3200004 L33.0122657,90.233662 C34.7874336,92.2882053 36.7275431,94.8080662 37.0694847,96.3598425 C33.6548058,97.6266602 30.4533022,99.1844628 27.4666964,101.019906 C31.4834336,103.391262 36.5216891,105.206905 40.1650467,103.482087 C46.5495358,100.459029 54.1980029,92.7152128 91.2073679,90.4781583 L90.8426015,83.9637109 L41.345908,86.3200004 Z" id="Fill-6" fill="#98480B"></path>
                            <path d="M14.0977701,52.476297 C14.0977701,52.476297 10.6878285,58.2309981 10.6654343,59.4534793 C10.6426095,60.6759605 10.3678504,62.2552857 15.8712153,63.0498985 C14.8316095,64.3335038 14.3423832,71.0864211 14.3423832,71.0864211 C14.3423832,71.0864211 11.3264927,71.0007613 11.152938,73.5955207 C10.9793832,76.1902801 12.7523978,77.6327218 15.8712153,78.1647594 C16.5439015,78.5741184 16.2863686,80.9101767 16.1972226,81.2855301 C16.1080766,81.6608835 13.7941569,86.6313026 21.7117847,89.8454812 C29.6294124,93.0592293 49.3190474,92.0201203 49.3190474,92.0201203 L47.2062445,60.1774981 L14.0977701,52.476297 Z" id="Fill-8" fill="#A05621"></path>
                            <path d="M13.1634168,54.2168692 C13.1634168,54.2168692 26.6602051,54.2969331 33.9899861,75.1574556 C35.9968474,85.3712 35.796592,92.5261586 35.796592,92.5261586 L41.3641248,92.5261586 L39.1285847,63.7251041 C39.1285847,63.7251041 16.9842051,49.0579124 13.1634168,54.2168692" id="Fill-10" fill="#98480B"></path>
                            <path d="M78.234646,1.69722575 C48.3014051,-2.28358628 33.1969745,11.1012915 29.159135,20.05941 C25.4218942,28.35119 18.8113102,47.0258818 16.2174635,54.34269 C18.6170839,54.9733009 22.3108285,56.9361581 27.4085146,62.1760397 C30.0277701,64.868081 31.9217993,68.0409363 33.2977482,71.3480923 C33.4006752,71.5956017 33.5005876,71.8435415 33.5974854,72.0919118 C41.5749745,72.2369739 66.0595438,71.1225359 85.2130109,50.6386581 C85.9468504,49.7872258 86.9864562,50.3950227 87.7814489,50.6106788 C88.4825584,50.8005077 98.9785292,47.8265209 102.180894,41.4605791 C101.075398,29.8607821 94.9355219,4.65055094 78.234646,1.69722575" id="Fill-12" fill="#FF5A0C"></path>
                            <path d="M102.564739,38.945238 C100.281826,22.0018207 93.4201693,1.79429248 73.9010745,0.58386391 C46.2623737,-1.13019248 29.8741547,11.9542305 26.6394905,17.8871383 C23.4052569,23.8196158 12.9971401,51.7429805 12.752527,52.4764692 C12.5079139,53.2095274 13.0453737,54.3123432 13.0453737,54.3123432 C13.4928263,54.1121835 14.538892,53.9021233 16.2175927,54.3429053 C18.8114394,47.0256665 25.4220234,28.3509748 29.1592642,20.0596252 C33.1971036,11.1010763 48.3011036,-2.28337105 78.2347752,1.69701053 C94.9356511,4.65076617 101.075527,29.8605669 102.181023,41.4603639 C102.394199,41.0359391 102.575505,40.5964485 102.718914,40.1418921 C102.669819,39.7450162 102.618571,39.345988 102.564739,38.945238" id="Fill-14" fill="#FFBD00"></path>
                            <path d="M25.5979898,47.8837709 C25.0743109,48.2647201 28.2680628,54.5247709 35.6159314,56.7932483 C36.1409022,56.9232445 46.9202453,48.6702051 47.6471942,44.4836374 C47.5662307,44.1306675 46.8801942,44.9377633 34.8489314,46.7942991 C30.2465007,47.3590509 25.8753328,47.6818893 25.5979898,47.8837709" id="Fill-17" fill="#1F191A"></path>
                            <path d="M102.719043,40.1420212 C100.421488,47.4157844 88.5293277,50.8133352 87.7812766,50.6105927 C87.4643131,50.5245024 87.1085905,50.3772882 86.7485613,50.2838803 C86.6654445,53.1592938 85.8523642,59.0211773 83.7886562,63.8814009 C81.4325321,69.429916 79.2542693,72.9940513 73.0902766,72.3651622 C79.0445394,71.5102863 80.6095467,68.3331265 81.5457949,66.7684367 C82.4816124,65.2041773 84.5306781,57.7203539 85.0957,52.9948615 C85.2106854,52.0328032 85.2666708,51.2446472 85.2671015,50.5839047 C85.2490139,50.6024141 85.2304956,50.6183408 85.2132693,50.638572 C66.0598022,71.1224498 41.5752328,72.2373182 33.5977438,72.0918258 C36.4982182,79.5188295 36.8733204,87.4925062 36.9318898,92.1805494 C73.5243788,92.6462976 93.1011818,88.2918539 96.8311015,85.5417017 C100.561452,82.7915494 103.435226,71.4844592 103.618685,56.7931622 C103.669503,52.7228164 103.531262,46.723619 102.719043,40.1420212" id="Fill-19" fill="#FFBD00"></path>
                            <path d="M86.7484321,50.2838803 C86.7600599,49.8766735 86.7574759,49.528869 86.7415416,49.2529498 C86.6123445,47.027087 84.4177168,46.1722111 83.5464978,46.1403577 C82.6752788,46.1080739 79.4156365,45.7693088 75.6883007,48.0915927 C75.6883007,48.0915927 79.7545635,46.6564686 82.3199869,47.1080118 C84.363454,47.4674385 85.2678336,47.9981848 85.2669723,50.5839047 C85.6989212,50.131931 86.2273372,50.1487186 86.7484321,50.2838803" id="Fill-21" fill="#D33000"></path>
                            <path d="M85.0956139,52.9947754 C84.5310226,57.7202679 82.4815263,65.2040912 81.5457088,66.7683506 C80.6098912,68.3330404 79.0444533,71.5102002 73.0901905,72.3650761 C79.2541832,72.9939652 81.4328766,69.4298299 83.7885701,63.8813148 C85.8522781,59.0210912 86.6653584,53.1592077 86.7484752,50.2837942 C86.2273803,50.1486325 85.6989642,50.1318449 85.2670153,50.5838186 C85.2670153,51.2445611 85.2105993,52.0331476 85.0956139,52.9947754" id="Fill-23" fill="#FFAD00"></path>
                            <path d="M50.9701861,105.041439 C53.2948723,105.428415 65.0543905,99.2389579 72.084865,99.2389579 C79.1153394,99.2389579 87.4563029,100.636202 88.5885,100.443791 C89.7206971,100.251379 89.9588504,99.5962323 87.6354562,99.2389579 C85.3116314,98.8816835 75.3023029,95.1298714 73.9319526,94.4747248 C72.5616022,93.8195782 70.5723978,93.8910331 69.0052372,94.063644 C67.437646,94.2366853 63.9820547,94.772597 63.9820547,95.7251853 C63.9820547,96.6782041 60.7051861,100.191546 58.2026387,101.02533 C55.7005219,101.859114 49.6954416,104.829227 50.9701861,105.041439" id="Fill-25" fill="#98480B"></path>
                            <path d="M10.6780526,59.3212878 C10.6707314,59.3694983 10.6659942,59.4142652 10.6651328,59.4534363 C10.6427387,60.6759175 10.3675489,62.2552427 15.8709139,63.0498555 C15.8709139,63.0498555 16.9621985,63.0619081 18.3837971,62.221237 C19.7967825,61.3853009 11.7848409,59.2317539 10.6780526,59.3212878" id="Fill-27" fill="#98480B"></path>
                            <path d="M15.8710431,78.1646303 C15.8710431,78.1646303 12.4085613,77.5000137 11.9154591,75.9925739 C11.4223569,74.485134 18.2387949,75.6154987 18.2965029,75.7024498 C18.3546416,75.7898314 18.5505905,77.4952788 15.8710431,78.1646303" id="Fill-29" fill="#98480B"></path>
                        </g>
                    </g>
                </g>
            </g>
        </g>
    </g>
</svg>