<?xml version="1.0" encoding="UTF-8" standalone="no"?>
<svg width="19px" height="24px" viewBox="0 0 19 24" version="1.1" xmlns="http://www.w3.org/2000/svg" xmlns:xlink="http://www.w3.org/1999/xlink">
    <!-- Generator: Sketch 41.2 (35397) - http://www.bohemiancoding.com/sketch -->
    <title>Icon_Hardening</title>
    <desc>Created with Sketch.</desc>
    <defs></defs>
    <g id="Symbols" stroke="none" stroke-width="1" fill="none" fill-rule="evenodd">
        <g id="Core-Hardening---Incomplete" transform="translate(-30.000000, -18.000000)" fill="#333333">
            <g id="Icon_Hardening" transform="translate(30.000000, 18.000000)">
                <path d="M5.9678,20 C5.9678,20.552 5.5198,21 4.9678,21 C4.4158,21 3.9678,20.552 3.9678,20 L3.9678,13 C3.9678,12.448 4.4158,12 4.9678,12 C5.5198,12 5.9678,12.448 5.9678,13 L5.9678,20 L5.9678,20 Z M7.1658,10.579 C6.4848,10.847 5.7448,11 4.9678,11 C4.1908,11 3.4508,10.847 2.7698,10.579 L1.9678,21 C1.9678,22.657 3.3108,24 4.9678,24 C6.6248,24 7.9678,22.657 7.9678,21 L7.1658,10.579 Z M6.9678,0.4586 L6.9678,3.3436 C6.9678,4.7156 6.3398,5.8276 4.9678,5.8276 C3.5958,5.8276 2.9678,4.7156 2.9678,3.3436 L2.9678,0.4586 C1.2218,1.2286 -0.000200000002,2.9696 -0.000200000002,4.9996 C-0.000200000002,7.7436 2.2238,9.9676 4.9678,9.9676 C7.7118,9.9676 9.9358,7.7436 9.9358,4.9996 C9.9358,2.9696 8.7138,1.2286 6.9678,0.4586 Z M17.58,12 L16.968,12 L16.968,7 L14.968,7 L14.968,12 L14.355,12 C13.589,12 12.968,12.621 12.968,13.387 L12.968,21 C12.968,22.657 14.311,24 15.968,24 C17.625,24 18.968,22.657 18.968,21 L18.968,13.387 C18.968,12.621 18.347,12 17.58,12 Z M16.968,21 L17.968,21 L17.968,14 L16.968,14 L16.968,21 Z M13.968,21 L14.968,21 L14.968,14 L13.968,14 L13.968,21 Z M15.0761,0 L13.9681,4 L14.9681,6 L16.9681,6 L17.9681,4 L16.7111,0 L15.0761,0 Z" id="icon-hardening"></path>
            </g>
        </g>
    </g>
</svg>