<?xml version="1.0" encoding="UTF-8" standalone="no"?>
<svg width="17px" height="17px" viewBox="0 0 17 17" version="1.1" xmlns="http://www.w3.org/2000/svg" xmlns:xlink="http://www.w3.org/1999/xlink">
    <!-- Generator: Sketch 41.2 (35397) - http://www.bohemiancoding.com/sketch -->
    <title>icon-hardening</title>
    <desc>Created with Sketch.</desc>
    <defs></defs>
    <g id="Symbols" stroke="none" stroke-width="1" fill="none" fill-rule="evenodd">
        <g id="File-Scanning---Item---Default" transform="translate(-682.000000, -16.000000)" fill="#888888">
            <path d="M690.805153,31.6017314 C690.805153,32.0706925 690.444444,32.4512986 690,32.4512986 C689.555556,32.4512986 689.194847,32.0706925 689.194847,31.6017314 L689.194847,25.6547614 C689.194847,25.1858003 689.555556,24.8051943 690,24.8051943 C690.444444,24.8051943 690.805153,25.1858003 690.805153,25.6547614 L690.805153,31.6017314 L690.805153,31.6017314 Z M691.769726,23.5979593 C691.221417,23.8256433 690.625604,23.9556271 690,23.9556271 C689.374396,23.9556271 688.778583,23.8256433 688.230274,23.5979593 L687.584541,32.4512986 C687.584541,33.8590313 688.665862,35 690,35 C691.334138,35 692.415459,33.8590313 692.415459,32.4512986 L691.769726,23.5979593 Z M691.610306,15 L691.610306,17.4510012 C691.610306,18.6166073 691.10467,19.561326 690,19.561326 C688.89533,19.561326 688.389694,18.6166073 688.389694,17.4510012 L688.389694,15 C686.983897,15.6541667 686,17.1332631 686,18.8578844 C686,21.1890967 687.79066,23.078534 690,23.078534 C692.20934,23.078534 694,21.1890967 694,18.8578844 C694,17.1332631 693.016103,15.6541667 691.610306,15 Z" id="icon-hardening" transform="translate(690.000000, 25.000000) rotate(45.000000) translate(-690.000000, -25.000000) "></path>
        </g>
    </g>
</svg>