<?xml version="1.0" encoding="UTF-8" standalone="no"?>
<svg width="21px" height="23px" viewBox="0 0 21 23" version="1.1" xmlns="http://www.w3.org/2000/svg" xmlns:xlink="http://www.w3.org/1999/xlink">
    <!-- Generator: Sketch 41.2 (35397) - http://www.bohemiancoding.com/sketch -->
    <title>Icon_Lockout</title>
    <desc>Created with Sketch.</desc>
    <defs></defs>
    <g id="Symbols" stroke="none" stroke-width="1" fill="none" fill-rule="evenodd">
        <g id="IP-Lockouts---Disabled" transform="translate(-31.000000, -19.000000)" fill="#000000">
            <g id="Icon_Lockout" transform="translate(30.000000, 18.000000)">
                <path d="M2.82353401,23 L1,22.996346 L1.0054706,20.2329859 C1.01002944,18.2132209 1.91450231,16.3323091 3.48821216,15.0707553 L4.14103733,14.546402 L4.71818584,15.154798 C4.80571548,15.2443217 6.98119155,17.4431342 11.0586136,17.4431342 L11.0586136,19.2701491 C7.53372235,19.2701491 5.16859874,17.8487315 4.08086071,17.0092181 C3.28032928,17.8852718 2.83173991,19.0262426 2.82900461,20.23664 L2.82353401,23 Z M7.41172793,10.1926255 L7.41172793,5.74110368 C7.41172793,4.13424407 8.66631933,2.82701491 10.2701175,2.82701491 L11.798239,2.82701491 C13.4011254,2.82701491 14.705864,4.13424407 14.705864,5.74110368 L14.705864,6.93962546 C15.2738948,6.70120002 15.8884258,6.55412532 16.529398,6.50479591 L16.529398,5.74110368 C16.529398,3.12755886 14.4068044,1 11.798239,1 L10.2701175,1 C7.66064032,1 5.58819392,3.12755886 5.58819392,5.74110368 L5.58819392,10.1926255 C5.58819392,12.9112237 7.58405189,15.162106 10.1907938,15.5512602 C10.2072056,14.8688702 10.4625003,14.2522526 10.8910308,13.7808828 C8.9517024,13.7333804 7.41172793,12.1457044 7.41172793,10.1926255 Z M21.088233,14.7030686 L21.088233,12.4192999 C21.088233,10.1492339 19.2510225,8.30851638 16.9852815,8.30851638 C14.7195405,8.30851638 12.88233,10.1492339 12.88233,12.4192999 L12.88233,14.7030686 C12.3790346,14.7030686 11.970563,15.1123199 11.970563,15.616576 L11.970563,22.0111282 C11.970563,22.5153843 12.3790346,22.9246356 12.88233,22.9246356 L21.088233,22.9246356 C21.5915284,22.9246356 22,22.5153843 22,22.0111282 L22,15.616576 C22,15.1123199 21.5915284,14.7030686 21.088233,14.7030686 Z M14.705864,12.4192999 C14.705864,11.1604867 15.7288665,10.1355313 16.9852815,10.1355313 C18.2416964,10.1355313 19.264699,11.1604867 19.264699,12.4192999 L19.264699,14.7030686 L14.705864,14.7030686 L14.705864,12.4192999 Z" id="icon-lockouts"></path>
            </g>
        </g>
    </g>
</svg>