<?xml version="1.0" encoding="UTF-8"?>
<svg width="25px" height="26px" viewBox="0 0 25 26" version="1.1" xmlns="http://www.w3.org/2000/svg" xmlns:xlink="http://www.w3.org/1999/xlink">
    <!-- Generator: Sketch 43.2 (39069) - http://www.bohemiancoding.com/sketch -->
    <title>icon-lockouts</title>
    <desc>Created with Sketch.</desc>
    <defs></defs>
    <g id="Symbols" stroke="none" stroke-width="1" fill="none" fill-rule="evenodd">
        <g id="Reporting---Pro" transform="translate(-115.000000, -352.000000)" fill="#666666">
            <path d="M117.170874,378 L115,377.995682 L115.006513,374.729892 C115.01194,372.342897 116.088693,370.120002 117.962157,368.629074 L118.73933,368.009384 L119.426412,368.728398 C119.530614,368.834198 122.120466,371.432795 126.97454,371.432795 L126.97454,373.591994 C122.778241,373.591994 119.962618,371.912137 118.667691,370.919985 C117.714678,371.955321 117.180643,373.303741 117.177386,374.734211 L117.170874,378 Z M122.633009,362.864012 C122.633009,365.172196 124.466312,367.04854 126.775037,367.10468 C126.264881,367.661753 125.960959,368.390483 125.941421,369.196944 C122.838157,368.737034 120.462136,366.076901 120.462136,362.864012 L120.462136,357.603123 C120.462136,354.514388 122.929334,352 126.035854,352 L127.855046,352 C130.960481,352 133.487379,354.514388 133.487379,357.603123 L133.487379,358.505668 C132.724316,358.563966 131.992732,358.737782 131.316505,359.019557 L131.316505,357.603123 C131.316505,355.704107 129.763245,354.159199 127.855046,354.159199 L126.035854,354.159199 C124.126571,354.159199 122.633009,355.704107 122.633009,357.603123 L122.633009,362.864012 Z M138.914563,368.194536 C139.513724,368.194536 140,368.678196 140,369.274135 L140,376.831333 C140,377.427272 139.513724,377.910933 138.914563,377.910933 L129.145631,377.910933 C128.54647,377.910933 128.060194,377.427272 128.060194,376.831333 L128.060194,369.274135 C128.060194,368.678196 128.54647,368.194536 129.145631,368.194536 L129.145631,365.495536 C129.145631,362.812731 131.332786,360.637338 134.030097,360.637338 C136.727408,360.637338 138.914563,362.812731 138.914563,365.495536 L138.914563,368.194536 Z M131.316505,365.495536 L131.316505,368.194536 L136.743689,368.194536 L136.743689,365.495536 C136.743689,364.007848 135.525829,362.796537 134.030097,362.796537 C132.534365,362.796537 131.316505,364.007848 131.316505,365.495536 Z" id="icon-lockouts"></path>
        </g>
    </g>
</svg>