<?xml version="1.0" encoding="UTF-8" standalone="no"?>
<svg width="24px" height="24px" viewBox="0 0 24 24" version="1.1" xmlns="http://www.w3.org/2000/svg" xmlns:xlink="http://www.w3.org/1999/xlink">
    <!-- Generator: Sketch 41.2 (35397) - http://www.bohemiancoding.com/sketch -->
    <title>Icon_Maleware</title>
    <desc>Created with Sketch.</desc>
    <defs></defs>
    <g id="Symbols" stroke="none" stroke-width="1" fill="none" fill-rule="evenodd">
        <g id="Malware-Scanning---Disabled" transform="translate(-30.000000, -18.000000)" fill="#333333">
            <g id="Icon_Maleware" transform="translate(30.000000, 18.000000)">
                <path d="M23.1422,20.3137 L17.4312,14.6027 C17.1482,14.3197 16.7992,14.1427 16.4332,14.0657 C18.8262,10.5617 18.4732,5.7457 15.3642,2.6357 C11.8492,-0.8783 6.1512,-0.8783 2.6362,2.6357 C-0.8788,6.1507 -0.8788,11.8487 2.6362,15.3637 C5.7452,18.4737 10.5622,18.8267 14.0662,16.4337 C14.1432,16.7997 14.3202,17.1487 14.6022,17.4307 L20.3132,23.1417 C21.0912,23.9197 22.3642,23.9197 23.1422,23.1417 C23.9202,22.3647 23.9202,21.0917 23.1422,20.3137 Z M4.0502,13.9497 C1.3212,11.2207 1.3212,6.7797 4.0502,4.0497 C6.7792,1.3207 11.2202,1.3207 13.9502,4.0497 C16.6792,6.7797 16.6792,11.2207 13.9502,13.9497 C11.2202,16.6787 6.7792,16.6787 4.0502,13.9497 Z M6.4043,5.6972 C6.2093,5.5022 5.8923,5.5022 5.6973,5.6972 C3.8763,7.5182 3.8763,10.4812 5.6973,12.3022 C5.7953,12.4002 5.9233,12.4492 6.0503,12.4492 C6.1783,12.4492 6.3063,12.4002 6.4043,12.3022 C6.5993,12.1072 6.5993,11.7912 6.4043,11.5952 C5.7113,10.9022 5.3293,9.9802 5.3293,9.0002 C5.3293,8.0192 5.7113,7.0972 6.4043,6.4042 C6.5993,6.2092 6.5993,5.8922 6.4043,5.6972 Z" id="icon-scanning"></path>
            </g>
        </g>
    </g>
</svg>