<?xml version="1.0" encoding="UTF-8" standalone="no"?>
<svg width="26px" height="26px" viewBox="0 0 26 26" version="1.1" xmlns="http://www.w3.org/2000/svg" xmlns:xlink="http://www.w3.org/1999/xlink">
    <!-- Generator: Sketch 41.2 (35397) - http://www.bohemiancoding.com/sketch -->
    <title>icon-scanning</title>
    <desc>Created with Sketch.</desc>
    <defs></defs>
    <g id="Symbols" stroke="none" stroke-width="1" fill="none" fill-rule="evenodd">
        <g id="Reporting---Pro" transform="translate(-115.000000, -204.000000)" fill="#666666">
            <path d="M140.360568,226.26137 L134.102136,220.00274 C133.792009,219.692603 133.409555,219.49863 133.008472,219.414247 C135.630855,215.574247 135.244018,210.296438 131.837002,206.888219 C127.985069,203.03726 121.740883,203.03726 117.88895,206.888219 C114.037017,210.740274 114.037017,216.984658 117.88895,220.836712 C121.295965,224.244932 126.574703,224.631781 130.414581,222.009315 C130.498962,222.410411 130.692929,222.792877 131.00196,223.101918 L137.260392,229.360548 C138.112968,230.213151 139.507992,230.213151 140.360568,229.360548 C141.213144,228.509041 141.213144,227.113973 140.360568,226.26137 Z M119.43849,219.287123 C116.447899,216.296438 116.447899,211.429589 119.43849,208.437808 C122.42908,205.447123 127.295776,205.447123 130.287462,208.437808 C133.278052,211.429589 133.278052,216.296438 130.287462,219.287123 C127.295776,222.277808 122.42908,222.277808 119.43849,219.287123 Z M122.018244,210.243288 C121.804552,210.029589 121.457166,210.029589 121.243474,210.243288 C119.247921,212.238904 119.247921,215.486027 121.243474,217.481644 C121.350868,217.589041 121.491137,217.64274 121.630311,217.64274 C121.77058,217.64274 121.91085,217.589041 122.018244,217.481644 C122.231936,217.267945 122.231936,216.921644 122.018244,216.706849 C121.258816,215.947397 120.840199,214.936986 120.840199,213.863014 C120.840199,212.787945 121.258816,211.777534 122.018244,211.018082 C122.231936,210.804384 122.231936,210.456986 122.018244,210.243288 Z" id="icon-scanning"></path>
        </g>
    </g>
</svg>