<?xml version="1.0" encoding="UTF-8"?>
<svg width="20px" height="20px" viewBox="0 0 20 20" version="1.1" xmlns="http://www.w3.org/2000/svg" xmlns:xlink="http://www.w3.org/1999/xlink">
    <!-- Generator: Sketch 42 (36781) - http://www.bohemiancoding.com/sketch -->
    <title>wpmudev-icon-cross</title>
    <desc>Created with Sketch.</desc>
    <defs></defs>
    <g id="Icons" stroke="none" stroke-width="1" fill="none" fill-rule="evenodd">
        <g id="wpmudev-icon-cross" fill="#888888">
            <path d="M10,8.58578644 L7.70710678,6.29289322 C7.31658249,5.90236893 6.68341751,5.90236893 6.29289322,6.29289322 C5.90236893,6.68341751 5.90236893,7.31658249 6.29289322,7.70710678 L8.58578644,10 L6.29289322,12.2928932 C5.90236893,12.6834175 5.90236893,13.3165825 6.29289322,13.7071068 C6.68341751,14.0976311 7.31658249,14.0976311 7.70710678,13.7071068 L10,11.4142136 L12.2928932,13.7071068 C12.6834175,14.0976311 13.3165825,14.0976311 13.7071068,13.7071068 C14.0976311,13.3165825 14.0976311,12.6834175 13.7071068,12.2928932 L11.4142136,10 L13.7071068,7.70710678 C14.0976311,7.31658249 14.0976311,6.68341751 13.7071068,6.29289322 C13.3165825,5.90236893 12.6834175,5.90236893 12.2928932,6.29289322 L10,8.58578644 Z M10,0 C15.5228475,0 20,4.4771525 20,10 C20,15.5228475 15.5228475,20 10,20 C4.4771525,20 0,15.5228475 0,10 C0,4.4771525 4.4771525,0 10,0 Z"></path>
        </g>
    </g>
</svg>