<?xml version="1.0" encoding="UTF-8"?>
<svg width="20px" height="20px" viewBox="0 0 20 20" version="1.1" xmlns="http://www.w3.org/2000/svg" xmlns:xlink="http://www.w3.org/1999/xlink">
    <!-- Generator: Sketch 42 (36781) - http://www.bohemiancoding.com/sketch -->
    <title>wpmudev-icon-info</title>
    <desc>Created with Sketch.</desc>
    <defs></defs>
    <g id="Icons" stroke="none" stroke-width="1" fill="none" fill-rule="evenodd">
        <g id="wpmudev-icon-info" fill="#888888">
            <path d="M10,20 C4.4771525,20 0,15.5228475 0,10 C0,4.4771525 4.4771525,0 10,0 C15.5228475,0 20,4.4771525 20,10 C20,15.5228475 15.5228475,20 10,20 Z M11,10.009222 L11,5.99077797 C11,5.45097518 10.5522847,5 10,5 C9.44386482,5 9,5.44358641 9,5.99077797 L9,10.009222 C9,10.5490248 9.44771525,11 10,11 C10.5561352,11 11,10.5564136 11,10.009222 Z M11.5,13.5 C11.5,12.6657972 10.8284271,12 10,12 C9.16579723,12 8.5,12.6715729 8.5,13.5 C8.5,14.3342028 9.17157288,15 10,15 C10.8342028,15 11.5,14.3284271 11.5,13.5 Z" transform="translate(10.000000, 10.000000) scale(1, -1) translate(-10.000000, -10.000000) "></path>
        </g>
    </g>
</svg>